ISO-10303-21;
HEADER;
/* Generated by software containing ST-Developer
 * from STEP Tools, Inc. (www.steptools.com) 
 */
/* OPTION: using custom renumber hook */

FILE_DESCRIPTION(
/* description */ ('STEP AP242 Edition 2',
'CAx-IF Rec.Pracs.---Representation and Presentation of Product Manufa
cturing Information (PMI)---4.0---2014-10-13',
'CAx-IF Rec.Pracs.---3D Tessellated Geometry---0.4---2014-09-14','2;1',
'CAx-IF Rec.Pracs.---User Defined Attributes---1.5---2016-08-15'),
/* implementation_level */ '2;1');

FILE_NAME(
/* name */ 'Part Studio 1 - Part 1',
/* time_stamp */ '2026-09-09T01:38:33Z',
/* author */ (''),
/* organization */ (''),
/* preprocessor_version */ 'ST-DEVELOPER v20',
/* originating_system */ 'ONSHAPE BY PTC INC, 1.220',
/* authorisation */ '  ');

FILE_SCHEMA (('AP242_MANAGED_MODEL_BASED_3D_ENGINEERING_MIM_LF { 1 0 10303 442 3 1 4 }'));
ENDSEC;

DATA;
#10=SHAPE_REPRESENTATION_RELATIONSHIP('','',#393,#11);
#11=ADVANCED_BREP_SHAPE_REPRESENTATION('',(#391),#625);
#12=CIRCLE('',#403,0.00145);
#13=CIRCLE('',#404,0.00145);
#14=CIRCLE('',#406,0.00145);
#15=CIRCLE('',#407,0.00145);
#16=CIRCLE('',#409,0.00145);
#17=CIRCLE('',#410,0.00145);
#18=CIRCLE('',#413,0.00145);
#19=CIRCLE('',#414,0.00145);
#20=CYLINDRICAL_SURFACE('',#402,0.00145);
#21=CYLINDRICAL_SURFACE('',#405,0.00145);
#22=CYLINDRICAL_SURFACE('',#408,0.00145);
#23=CYLINDRICAL_SURFACE('',#412,0.00145);
#24=ORIENTED_EDGE('',*,*,#120,.T.);
#25=ORIENTED_EDGE('',*,*,#121,.T.);
#26=ORIENTED_EDGE('',*,*,#122,.T.);
#27=ORIENTED_EDGE('',*,*,#123,.F.);
#28=ORIENTED_EDGE('',*,*,#124,.F.);
#29=ORIENTED_EDGE('',*,*,#125,.T.);
#30=ORIENTED_EDGE('',*,*,#126,.T.);
#31=ORIENTED_EDGE('',*,*,#127,.F.);
#32=ORIENTED_EDGE('',*,*,#128,.F.);
#33=ORIENTED_EDGE('',*,*,#129,.F.);
#34=ORIENTED_EDGE('',*,*,#130,.T.);
#35=ORIENTED_EDGE('',*,*,#131,.T.);
#36=ORIENTED_EDGE('',*,*,#127,.T.);
#37=ORIENTED_EDGE('',*,*,#132,.F.);
#38=ORIENTED_EDGE('',*,*,#133,.F.);
#39=ORIENTED_EDGE('',*,*,#134,.T.);
#40=ORIENTED_EDGE('',*,*,#129,.T.);
#41=ORIENTED_EDGE('',*,*,#135,.F.);
#42=ORIENTED_EDGE('',*,*,#136,.F.);
#43=ORIENTED_EDGE('',*,*,#137,.T.);
#44=ORIENTED_EDGE('',*,*,#133,.T.);
#45=ORIENTED_EDGE('',*,*,#138,.T.);
#46=ORIENTED_EDGE('',*,*,#139,.F.);
#47=ORIENTED_EDGE('',*,*,#140,.F.);
#48=ORIENTED_EDGE('',*,*,#136,.T.);
#49=ORIENTED_EDGE('',*,*,#141,.F.);
#50=ORIENTED_EDGE('',*,*,#142,.F.);
#51=ORIENTED_EDGE('',*,*,#143,.T.);
#52=ORIENTED_EDGE('',*,*,#139,.T.);
#53=ORIENTED_EDGE('',*,*,#144,.F.);
#54=ORIENTED_EDGE('',*,*,#145,.T.);
#55=ORIENTED_EDGE('',*,*,#146,.F.);
#56=ORIENTED_EDGE('',*,*,#147,.T.);
#57=ORIENTED_EDGE('',*,*,#148,.F.);
#58=ORIENTED_EDGE('',*,*,#149,.T.);
#59=ORIENTED_EDGE('',*,*,#150,.F.);
#60=ORIENTED_EDGE('',*,*,#151,.F.);
#61=ORIENTED_EDGE('',*,*,#152,.T.);
#62=ORIENTED_EDGE('',*,*,#142,.T.);
#63=ORIENTED_EDGE('',*,*,#153,.F.);
#64=ORIENTED_EDGE('',*,*,#154,.T.);
#65=ORIENTED_EDGE('',*,*,#122,.F.);
#66=ORIENTED_EDGE('',*,*,#155,.T.);
#67=ORIENTED_EDGE('',*,*,#124,.T.);
#68=ORIENTED_EDGE('',*,*,#156,.T.);
#69=ORIENTED_EDGE('',*,*,#157,.F.);
#70=ORIENTED_EDGE('',*,*,#158,.F.);
#71=ORIENTED_EDGE('',*,*,#150,.T.);
#72=ORIENTED_EDGE('',*,*,#141,.T.);
#73=ORIENTED_EDGE('',*,*,#138,.F.);
#74=ORIENTED_EDGE('',*,*,#135,.T.);
#75=ORIENTED_EDGE('',*,*,#132,.T.);
#76=ORIENTED_EDGE('',*,*,#128,.T.);
#77=ORIENTED_EDGE('',*,*,#126,.F.);
#78=ORIENTED_EDGE('',*,*,#159,.F.);
#79=ORIENTED_EDGE('',*,*,#148,.T.);
#80=ORIENTED_EDGE('',*,*,#146,.T.);
#81=ORIENTED_EDGE('',*,*,#144,.T.);
#82=ORIENTED_EDGE('',*,*,#153,.T.);
#83=ORIENTED_EDGE('',*,*,#123,.T.);
#84=ORIENTED_EDGE('',*,*,#157,.T.);
#85=ORIENTED_EDGE('',*,*,#160,.F.);
#86=ORIENTED_EDGE('',*,*,#161,.T.);
#87=ORIENTED_EDGE('',*,*,#156,.F.);
#88=ORIENTED_EDGE('',*,*,#131,.F.);
#89=ORIENTED_EDGE('',*,*,#162,.F.);
#90=ORIENTED_EDGE('',*,*,#160,.T.);
#91=ORIENTED_EDGE('',*,*,#120,.F.);
#92=ORIENTED_EDGE('',*,*,#161,.F.);
#93=ORIENTED_EDGE('',*,*,#162,.T.);
#94=ORIENTED_EDGE('',*,*,#130,.F.);
#95=ORIENTED_EDGE('',*,*,#134,.F.);
#96=ORIENTED_EDGE('',*,*,#137,.F.);
#97=ORIENTED_EDGE('',*,*,#140,.T.);
#98=ORIENTED_EDGE('',*,*,#143,.F.);
#99=ORIENTED_EDGE('',*,*,#152,.F.);
#100=ORIENTED_EDGE('',*,*,#163,.T.);
#101=ORIENTED_EDGE('',*,*,#164,.T.);
#102=ORIENTED_EDGE('',*,*,#165,.F.);
#103=ORIENTED_EDGE('',*,*,#149,.F.);
#104=ORIENTED_EDGE('',*,*,#147,.F.);
#105=ORIENTED_EDGE('',*,*,#145,.F.);
#106=ORIENTED_EDGE('',*,*,#154,.F.);
#107=ORIENTED_EDGE('',*,*,#155,.F.);
#108=ORIENTED_EDGE('',*,*,#121,.F.);
#109=ORIENTED_EDGE('',*,*,#165,.T.);
#110=ORIENTED_EDGE('',*,*,#166,.T.);
#111=ORIENTED_EDGE('',*,*,#158,.T.);
#112=ORIENTED_EDGE('',*,*,#167,.F.);
#113=ORIENTED_EDGE('',*,*,#163,.F.);
#114=ORIENTED_EDGE('',*,*,#151,.T.);
#115=ORIENTED_EDGE('',*,*,#159,.T.);
#116=ORIENTED_EDGE('',*,*,#125,.F.);
#117=ORIENTED_EDGE('',*,*,#166,.F.);
#118=ORIENTED_EDGE('',*,*,#164,.F.);
#119=ORIENTED_EDGE('',*,*,#167,.T.);
#120=EDGE_CURVE('',#168,#169,#202,.T.);
#121=EDGE_CURVE('',#169,#170,#203,.T.);
#122=EDGE_CURVE('',#170,#171,#204,.T.);
#123=EDGE_CURVE('',#168,#171,#205,.T.);
#124=EDGE_CURVE('',#172,#173,#206,.T.);
#125=EDGE_CURVE('',#172,#174,#207,.T.);
#126=EDGE_CURVE('',#174,#175,#208,.T.);
#127=EDGE_CURVE('',#173,#175,#209,.T.);
#128=EDGE_CURVE('',#176,#175,#210,.T.);
#129=EDGE_CURVE('',#177,#176,#211,.T.);
#130=EDGE_CURVE('',#177,#178,#212,.T.);
#131=EDGE_CURVE('',#178,#173,#213,.T.);
#132=EDGE_CURVE('',#179,#176,#214,.T.);
#133=EDGE_CURVE('',#180,#179,#215,.T.);
#134=EDGE_CURVE('',#180,#177,#216,.T.);
#135=EDGE_CURVE('',#181,#179,#217,.T.);
#136=EDGE_CURVE('',#182,#181,#218,.T.);
#137=EDGE_CURVE('',#182,#180,#219,.T.);
#138=EDGE_CURVE('',#181,#183,#220,.T.);
#139=EDGE_CURVE('',#184,#183,#221,.T.);
#140=EDGE_CURVE('',#182,#184,#222,.T.);
#141=EDGE_CURVE('',#185,#183,#223,.T.);
#142=EDGE_CURVE('',#186,#185,#224,.T.);
#143=EDGE_CURVE('',#186,#184,#225,.T.);
#144=EDGE_CURVE('',#187,#187,#12,.T.);
#145=EDGE_CURVE('',#188,#188,#13,.T.);
#146=EDGE_CURVE('',#189,#189,#14,.T.);
#147=EDGE_CURVE('',#190,#190,#15,.T.);
#148=EDGE_CURVE('',#191,#191,#16,.T.);
#149=EDGE_CURVE('',#192,#192,#17,.T.);
#150=EDGE_CURVE('',#193,#185,#226,.T.);
#151=EDGE_CURVE('',#194,#193,#227,.T.);
#152=EDGE_CURVE('',#194,#186,#228,.T.);
#153=EDGE_CURVE('',#195,#195,#18,.T.);
#154=EDGE_CURVE('',#196,#196,#19,.T.);
#155=EDGE_CURVE('',#170,#172,#229,.T.);
#156=EDGE_CURVE('',#173,#197,#230,.T.);
#157=EDGE_CURVE('',#171,#197,#231,.T.);
#158=EDGE_CURVE('',#193,#198,#232,.T.);
#159=EDGE_CURVE('',#198,#174,#233,.T.);
#160=EDGE_CURVE('',#199,#197,#234,.T.);
#161=EDGE_CURVE('',#199,#168,#235,.T.);
#162=EDGE_CURVE('',#199,#178,#236,.T.);
#163=EDGE_CURVE('',#194,#200,#237,.T.);
#164=EDGE_CURVE('',#200,#201,#238,.T.);
#165=EDGE_CURVE('',#169,#201,#239,.T.);
#166=EDGE_CURVE('',#201,#172,#240,.T.);
#167=EDGE_CURVE('',#200,#198,#241,.T.);
#168=VERTEX_POINT('',#524);
#169=VERTEX_POINT('',#525);
#170=VERTEX_POINT('',#527);
#171=VERTEX_POINT('',#529);
#172=VERTEX_POINT('',#533);
#173=VERTEX_POINT('',#534);
#174=VERTEX_POINT('',#536);
#175=VERTEX_POINT('',#538);
#176=VERTEX_POINT('',#542);
#177=VERTEX_POINT('',#544);
#178=VERTEX_POINT('',#546);
#179=VERTEX_POINT('',#550);
#180=VERTEX_POINT('',#552);
#181=VERTEX_POINT('',#556);
#182=VERTEX_POINT('',#558);
#183=VERTEX_POINT('',#562);
#184=VERTEX_POINT('',#564);
#185=VERTEX_POINT('',#568);
#186=VERTEX_POINT('',#570);
#187=VERTEX_POINT('',#574);
#188=VERTEX_POINT('',#576);
#189=VERTEX_POINT('',#579);
#190=VERTEX_POINT('',#581);
#191=VERTEX_POINT('',#584);
#192=VERTEX_POINT('',#586);
#193=VERTEX_POINT('',#589);
#194=VERTEX_POINT('',#591);
#195=VERTEX_POINT('',#595);
#196=VERTEX_POINT('',#597);
#197=VERTEX_POINT('',#601);
#198=VERTEX_POINT('',#605);
#199=VERTEX_POINT('',#609);
#200=VERTEX_POINT('',#615);
#201=VERTEX_POINT('',#617);
#202=LINE('',#523,#242);
#203=LINE('',#526,#243);
#204=LINE('',#528,#244);
#205=LINE('',#530,#245);
#206=LINE('',#532,#246);
#207=LINE('',#535,#247);
#208=LINE('',#537,#248);
#209=LINE('',#539,#249);
#210=LINE('',#541,#250);
#211=LINE('',#543,#251);
#212=LINE('',#545,#252);
#213=LINE('',#547,#253);
#214=LINE('',#549,#254);
#215=LINE('',#551,#255);
#216=LINE('',#553,#256);
#217=LINE('',#555,#257);
#218=LINE('',#557,#258);
#219=LINE('',#559,#259);
#220=LINE('',#561,#260);
#221=LINE('',#563,#261);
#222=LINE('',#565,#262);
#223=LINE('',#567,#263);
#224=LINE('',#569,#264);
#225=LINE('',#571,#265);
#226=LINE('',#588,#266);
#227=LINE('',#590,#267);
#228=LINE('',#592,#268);
#229=LINE('',#599,#269);
#230=LINE('',#600,#270);
#231=LINE('',#602,#271);
#232=LINE('',#604,#272);
#233=LINE('',#606,#273);
#234=LINE('',#608,#274);
#235=LINE('',#610,#275);
#236=LINE('',#612,#276);
#237=LINE('',#614,#277);
#238=LINE('',#616,#278);
#239=LINE('',#618,#279);
#240=LINE('',#620,#280);
#241=LINE('',#622,#281);
#242=VECTOR('',#427,1.);
#243=VECTOR('',#428,1.);
#244=VECTOR('',#429,1.);
#245=VECTOR('',#430,1.);
#246=VECTOR('',#433,1.);
#247=VECTOR('',#434,1.);
#248=VECTOR('',#435,1.);
#249=VECTOR('',#436,1.);
#250=VECTOR('',#439,1.);
#251=VECTOR('',#440,1.);
#252=VECTOR('',#441,1.);
#253=VECTOR('',#442,1.);
#254=VECTOR('',#445,1.);
#255=VECTOR('',#446,1.);
#256=VECTOR('',#447,1.);
#257=VECTOR('',#450,1.);
#258=VECTOR('',#451,1.);
#259=VECTOR('',#452,1.);
#260=VECTOR('',#455,1.);
#261=VECTOR('',#456,1.);
#262=VECTOR('',#457,1.);
#263=VECTOR('',#460,1.);
#264=VECTOR('',#461,1.);
#265=VECTOR('',#462,1.);
#266=VECTOR('',#483,1.);
#267=VECTOR('',#484,1.);
#268=VECTOR('',#485,1.);
#269=VECTOR('',#494,1.);
#270=VECTOR('',#495,1.);
#271=VECTOR('',#496,1.);
#272=VECTOR('',#499,1.);
#273=VECTOR('',#500,1.);
#274=VECTOR('',#503,1.);
#275=VECTOR('',#504,1.);
#276=VECTOR('',#507,1.);
#277=VECTOR('',#510,1.);
#278=VECTOR('',#511,1.);
#279=VECTOR('',#512,1.);
#280=VECTOR('',#515,1.);
#281=VECTOR('',#518,1.);
#282=EDGE_LOOP('',(#24,#25,#26,#27));
#283=EDGE_LOOP('',(#28,#29,#30,#31));
#284=EDGE_LOOP('',(#32,#33,#34,#35,#36));
#285=EDGE_LOOP('',(#37,#38,#39,#40));
#286=EDGE_LOOP('',(#41,#42,#43,#44));
#287=EDGE_LOOP('',(#45,#46,#47,#48));
#288=EDGE_LOOP('',(#49,#50,#51,#52));
#289=EDGE_LOOP('',(#53));
#290=EDGE_LOOP('',(#54));
#291=EDGE_LOOP('',(#55));
#292=EDGE_LOOP('',(#56));
#293=EDGE_LOOP('',(#57));
#294=EDGE_LOOP('',(#58));
#295=EDGE_LOOP('',(#59,#60,#61,#62));
#296=EDGE_LOOP('',(#63));
#297=EDGE_LOOP('',(#64));
#298=EDGE_LOOP('',(#65,#66,#67,#68,#69));
#299=EDGE_LOOP('',(#70,#71,#72,#73,#74,#75,#76,#77,#78));
#300=EDGE_LOOP('',(#79));
#301=EDGE_LOOP('',(#80));
#302=EDGE_LOOP('',(#81));
#303=EDGE_LOOP('',(#82));
#304=EDGE_LOOP('',(#83,#84,#85,#86));
#305=EDGE_LOOP('',(#87,#88,#89,#90));
#306=EDGE_LOOP('',(#91,#92,#93,#94,#95,#96,#97,#98,#99,#100,#101,#102));
#307=EDGE_LOOP('',(#103));
#308=EDGE_LOOP('',(#104));
#309=EDGE_LOOP('',(#105));
#310=EDGE_LOOP('',(#106));
#311=EDGE_LOOP('',(#107,#108,#109,#110));
#312=EDGE_LOOP('',(#111,#112,#113,#114));
#313=EDGE_LOOP('',(#115,#116,#117,#118,#119));
#314=FACE_BOUND('',#282,.T.);
#315=FACE_BOUND('',#283,.T.);
#316=FACE_BOUND('',#284,.T.);
#317=FACE_BOUND('',#285,.T.);
#318=FACE_BOUND('',#286,.T.);
#319=FACE_BOUND('',#287,.T.);
#320=FACE_BOUND('',#288,.T.);
#321=FACE_BOUND('',#289,.T.);
#322=FACE_BOUND('',#290,.T.);
#323=FACE_BOUND('',#291,.T.);
#324=FACE_BOUND('',#292,.T.);
#325=FACE_BOUND('',#293,.T.);
#326=FACE_BOUND('',#294,.T.);
#327=FACE_BOUND('',#295,.T.);
#328=FACE_BOUND('',#296,.T.);
#329=FACE_BOUND('',#297,.T.);
#330=FACE_BOUND('',#298,.T.);
#331=FACE_BOUND('',#299,.T.);
#332=FACE_BOUND('',#300,.T.);
#333=FACE_BOUND('',#301,.T.);
#334=FACE_BOUND('',#302,.T.);
#335=FACE_BOUND('',#303,.T.);
#336=FACE_BOUND('',#304,.T.);
#337=FACE_BOUND('',#305,.T.);
#338=FACE_BOUND('',#306,.T.);
#339=FACE_BOUND('',#307,.T.);
#340=FACE_BOUND('',#308,.T.);
#341=FACE_BOUND('',#309,.T.);
#342=FACE_BOUND('',#310,.T.);
#343=FACE_BOUND('',#311,.T.);
#344=FACE_BOUND('',#312,.T.);
#345=FACE_BOUND('',#313,.T.);
#346=PLANE('',#395);
#347=PLANE('',#396);
#348=PLANE('',#397);
#349=PLANE('',#398);
#350=PLANE('',#399);
#351=PLANE('',#400);
#352=PLANE('',#401);
#353=PLANE('',#411);
#354=PLANE('',#415);
#355=PLANE('',#416);
#356=PLANE('',#417);
#357=PLANE('',#418);
#358=PLANE('',#419);
#359=PLANE('',#420);
#360=PLANE('',#421);
#361=PLANE('',#422);
#362=ADVANCED_FACE('',(#314),#346,.T.);
#363=ADVANCED_FACE('',(#315),#347,.F.);
#364=ADVANCED_FACE('',(#316),#348,.T.);
#365=ADVANCED_FACE('',(#317),#349,.T.);
#366=ADVANCED_FACE('',(#318),#350,.T.);
#367=ADVANCED_FACE('',(#319),#351,.F.);
#368=ADVANCED_FACE('',(#320),#352,.T.);
#369=ADVANCED_FACE('',(#321,#322),#20,.F.);
#370=ADVANCED_FACE('',(#323,#324),#21,.F.);
#371=ADVANCED_FACE('',(#325,#326),#22,.F.);
#372=ADVANCED_FACE('',(#327),#353,.T.);
#373=ADVANCED_FACE('',(#328,#329),#23,.F.);
#374=ADVANCED_FACE('',(#330),#354,.T.);
#375=ADVANCED_FACE('',(#331,#332,#333,#334,#335),#355,.F.);
#376=ADVANCED_FACE('',(#336),#356,.T.);
#377=ADVANCED_FACE('',(#337),#357,.F.);
#378=ADVANCED_FACE('',(#338,#339,#340,#341,#342),#358,.T.);
#379=ADVANCED_FACE('',(#343),#359,.T.);
#380=ADVANCED_FACE('',(#344),#360,.F.);
#381=ADVANCED_FACE('',(#345),#361,.F.);
#382=CLOSED_SHELL('',(#362,#363,#364,#365,#366,#367,#368,#369,#370,#371,
#372,#373,#374,#375,#376,#377,#378,#379,#380,#381));
#383=STYLED_ITEM('',(#384),#391);
#384=PRESENTATION_STYLE_ASSIGNMENT((#385));
#385=SURFACE_STYLE_USAGE(.BOTH.,#386);
#386=SURFACE_SIDE_STYLE('',(#387));
#387=SURFACE_STYLE_FILL_AREA(#388);
#388=FILL_AREA_STYLE('',(#389));
#389=FILL_AREA_STYLE_COLOUR('',#390);
#390=COLOUR_RGB('',0.615686274509804,0.811764705882353,0.929411764705882);
#391=MANIFOLD_SOLID_BREP('Part 1',#382);
#392=SHAPE_DEFINITION_REPRESENTATION(#630,#393);
#393=SHAPE_REPRESENTATION('Part 1',(#394),#625);
#394=AXIS2_PLACEMENT_3D('',#521,#423,#424);
#395=AXIS2_PLACEMENT_3D('',#522,#425,#426);
#396=AXIS2_PLACEMENT_3D('',#531,#431,#432);
#397=AXIS2_PLACEMENT_3D('',#540,#437,#438);
#398=AXIS2_PLACEMENT_3D('',#548,#443,#444);
#399=AXIS2_PLACEMENT_3D('',#554,#448,#449);
#400=AXIS2_PLACEMENT_3D('',#560,#453,#454);
#401=AXIS2_PLACEMENT_3D('',#566,#458,#459);
#402=AXIS2_PLACEMENT_3D('',#572,#463,#464);
#403=AXIS2_PLACEMENT_3D('',#573,#465,#466);
#404=AXIS2_PLACEMENT_3D('',#575,#467,#468);
#405=AXIS2_PLACEMENT_3D('',#577,#469,#470);
#406=AXIS2_PLACEMENT_3D('',#578,#471,#472);
#407=AXIS2_PLACEMENT_3D('',#580,#473,#474);
#408=AXIS2_PLACEMENT_3D('',#582,#475,#476);
#409=AXIS2_PLACEMENT_3D('',#583,#477,#478);
#410=AXIS2_PLACEMENT_3D('',#585,#479,#480);
#411=AXIS2_PLACEMENT_3D('',#587,#481,#482);
#412=AXIS2_PLACEMENT_3D('',#593,#486,#487);
#413=AXIS2_PLACEMENT_3D('',#594,#488,#489);
#414=AXIS2_PLACEMENT_3D('',#596,#490,#491);
#415=AXIS2_PLACEMENT_3D('',#598,#492,#493);
#416=AXIS2_PLACEMENT_3D('',#603,#497,#498);
#417=AXIS2_PLACEMENT_3D('',#607,#501,#502);
#418=AXIS2_PLACEMENT_3D('',#611,#505,#506);
#419=AXIS2_PLACEMENT_3D('',#613,#508,#509);
#420=AXIS2_PLACEMENT_3D('',#619,#513,#514);
#421=AXIS2_PLACEMENT_3D('',#621,#516,#517);
#422=AXIS2_PLACEMENT_3D('',#623,#519,#520);
#423=DIRECTION('',(0.,0.,1.));
#424=DIRECTION('',(1.,0.,0.));
#425=DIRECTION('',(-1.,0.,0.));
#426=DIRECTION('',(0.,0.,1.));
#427=DIRECTION('',(0.,1.,0.));
#428=DIRECTION('',(0.,0.,-1.));
#429=DIRECTION('',(0.,-1.,0.));
#430=DIRECTION('',(0.,0.,-1.));
#431=DIRECTION('',(0.,-1.,0.));
#432=DIRECTION('',(0.,0.,-1.));
#433=DIRECTION('',(-1.,0.,0.));
#434=DIRECTION('',(0.,0.,-1.));
#435=DIRECTION('',(-1.,0.,0.));
#436=DIRECTION('',(0.,0.,-1.));
#437=DIRECTION('',(0.999786389362594,-0.0206682279189066,0.));
#438=DIRECTION('',(0.0206682279189066,0.999786389362594,0.));
#439=DIRECTION('',(-0.0206682279189066,-0.999786389362594,0.));
#440=DIRECTION('',(0.,0.,-1.));
#441=DIRECTION('',(-0.0206682279189066,-0.999786389362594,0.));
#442=DIRECTION('',(0.,0.,-1.));
#443=DIRECTION('',(0.,1.,0.));
#444=DIRECTION('',(0.,0.,1.));
#445=DIRECTION('',(1.,0.,0.));
#446=DIRECTION('',(0.,0.,-1.));
#447=DIRECTION('',(1.,0.,0.));
#448=DIRECTION('',(-1.,0.,0.));
#449=DIRECTION('',(0.,0.,1.));
#450=DIRECTION('',(0.,1.,0.));
#451=DIRECTION('',(0.,0.,-1.));
#452=DIRECTION('',(0.,1.,0.));
#453=DIRECTION('',(0.,1.,0.));
#454=DIRECTION('',(0.,0.,1.));
#455=DIRECTION('',(1.,0.,0.));
#456=DIRECTION('',(0.,0.,-1.));
#457=DIRECTION('',(1.,0.,0.));
#458=DIRECTION('',(1.,1.84055541217698E-16,0.));
#459=DIRECTION('',(-1.84055541217698E-16,1.,0.));
#460=DIRECTION('',(1.84055541217698E-16,-1.,0.));
#461=DIRECTION('',(0.,0.,-1.));
#462=DIRECTION('',(1.84055541217698E-16,-1.,0.));
#463=DIRECTION('',(0.,0.,-1.));
#464=DIRECTION('',(-1.,0.,0.));
#465=DIRECTION('',(0.,0.,1.));
#466=DIRECTION('',(1.,0.,0.));
#467=DIRECTION('',(0.,0.,1.));
#468=DIRECTION('',(1.,0.,0.));
#469=DIRECTION('',(0.,0.,-1.));
#470=DIRECTION('',(-1.,0.,0.));
#471=DIRECTION('',(0.,0.,1.));
#472=DIRECTION('',(1.,0.,0.));
#473=DIRECTION('',(0.,0.,1.));
#474=DIRECTION('',(1.,0.,0.));
#475=DIRECTION('',(0.,0.,-1.));
#476=DIRECTION('',(-1.,0.,0.));
#477=DIRECTION('',(0.,0.,1.));
#478=DIRECTION('',(1.,0.,0.));
#479=DIRECTION('',(0.,0.,1.));
#480=DIRECTION('',(1.,0.,0.));
#481=DIRECTION('',(-0.000801514684861709,0.999999678787053,0.));
#482=DIRECTION('',(-0.999999678787053,-0.000801514684861709,0.));
#483=DIRECTION('',(0.999999678787053,0.000801514684861709,0.));
#484=DIRECTION('',(0.,0.,-1.));
#485=DIRECTION('',(0.999999678787053,0.000801514684861709,0.));
#486=DIRECTION('',(0.,0.,-1.));
#487=DIRECTION('',(-1.,0.,0.));
#488=DIRECTION('',(0.,0.,1.));
#489=DIRECTION('',(1.,0.,0.));
#490=DIRECTION('',(0.,0.,1.));
#491=DIRECTION('',(1.,0.,0.));
#492=DIRECTION('',(0.,0.,1.));
#493=DIRECTION('',(1.,0.,0.));
#494=DIRECTION('',(-1.,0.,0.));
#495=DIRECTION('',(0.,-1.,0.));
#496=DIRECTION('',(-1.,0.,0.));
#497=DIRECTION('',(0.,0.,1.));
#498=DIRECTION('',(1.,0.,0.));
#499=DIRECTION('',(-1.,0.,0.));
#500=DIRECTION('',(0.,-1.,0.));
#501=DIRECTION('',(0.,1.,0.));
#502=DIRECTION('',(0.,0.,1.));
#503=DIRECTION('',(0.,0.,-1.));
#504=DIRECTION('',(1.,0.,0.));
#505=DIRECTION('',(-1.,0.,0.));
#506=DIRECTION('',(0.,0.,1.));
#507=DIRECTION('',(0.,1.,0.));
#508=DIRECTION('',(0.,0.,1.));
#509=DIRECTION('',(1.,0.,0.));
#510=DIRECTION('',(-1.,0.,0.));
#511=DIRECTION('',(0.,-1.,0.));
#512=DIRECTION('',(-1.,0.,0.));
#513=DIRECTION('',(0.,-1.,0.));
#514=DIRECTION('',(0.,0.,-1.));
#515=DIRECTION('',(0.,0.,-1.));
#516=DIRECTION('',(0.,-1.,0.));
#517=DIRECTION('',(0.,0.,-1.));
#518=DIRECTION('',(0.,0.,-1.));
#519=DIRECTION('',(1.,0.,0.));
#520=DIRECTION('',(0.,0.,-1.));
#521=CARTESIAN_POINT('',(0.,0.,0.));
#522=CARTESIAN_POINT('',(0.0384838841855526,0.0676991284310818,0.003));
#523=CARTESIAN_POINT('',(0.0384838841855526,0.0676991284310818,0.01));
#524=CARTESIAN_POINT('',(0.0384838841855526,0.,0.01));
#525=CARTESIAN_POINT('',(0.0384838841855526,0.0654,0.01));
#526=CARTESIAN_POINT('',(0.0384838841855526,0.0654,0.01));
#527=CARTESIAN_POINT('',(0.0384838841855526,0.0654,0.003));
#528=CARTESIAN_POINT('',(0.0384838841855526,0.0323021656505764,0.003));
#529=CARTESIAN_POINT('',(0.0384838841855526,0.,0.003));
#530=CARTESIAN_POINT('',(0.0384838841855526,0.,0.01));
#531=CARTESIAN_POINT('',(0.00884569063782692,0.0654,0.003));
#532=CARTESIAN_POINT('',(0.00884569063782692,0.0654,0.003));
#533=CARTESIAN_POINT('',(-0.0207925029098987,0.0654,0.003));
#534=CARTESIAN_POINT('',(-0.0419161158144474,0.0654,0.003));
#535=CARTESIAN_POINT('',(-0.0207925029098987,0.0654,0.01));
#536=CARTESIAN_POINT('',(-0.0207925029098987,0.0654,0.));
#537=CARTESIAN_POINT('',(0.00884569063782692,0.0654,0.));
#538=CARTESIAN_POINT('',(-0.0419161158144474,0.0654,0.));
#539=CARTESIAN_POINT('',(-0.0419161158144474,0.0654,0.003));
#540=CARTESIAN_POINT('',(-0.0418685463488102,0.0677010828252882,0.003));
#541=CARTESIAN_POINT('',(-0.0418685463488102,0.0677010828252882,0.));
#542=CARTESIAN_POINT('',(-0.041820976883173,0.0700021656505764,0.));
#543=CARTESIAN_POINT('',(-0.041820976883173,0.0700021656505764,0.003));
#544=CARTESIAN_POINT('',(-0.041820976883173,0.0700021656505764,0.01));
#545=CARTESIAN_POINT('',(-0.0418685463488102,0.0677010828252882,0.01));
#546=CARTESIAN_POINT('',(-0.0419161158144474,0.0654,0.01));
#547=CARTESIAN_POINT('',(-0.0419161158144474,0.0654,0.01));
#548=CARTESIAN_POINT('',(-0.0444301710881293,0.0700021656505764,0.003));
#549=CARTESIAN_POINT('',(-0.0444301710881293,0.0700021656505764,0.));
#550=CARTESIAN_POINT('',(-0.0470393652930856,0.0700021656505764,0.));
#551=CARTESIAN_POINT('',(-0.0470393652930856,0.0700021656505764,0.003));
#552=CARTESIAN_POINT('',(-0.0470393652930856,0.0700021656505764,0.01));
#553=CARTESIAN_POINT('',(-0.0444301710881293,0.0700021656505764,0.01));
#554=CARTESIAN_POINT('',(-0.0470393652930856,0.0323021656505764,0.003));
#555=CARTESIAN_POINT('',(-0.0470393652930856,0.0323021656505764,0.));
#556=CARTESIAN_POINT('',(-0.0470393652930856,-0.00539783434942365,0.));
#557=CARTESIAN_POINT('',(-0.0470393652930856,-0.00539783434942365,0.003));
#558=CARTESIAN_POINT('',(-0.0470393652930856,-0.00539783434942365,0.01));
#559=CARTESIAN_POINT('',(-0.0470393652930856,0.0323021656505764,0.01));
#560=CARTESIAN_POINT('',(-0.00183936529308558,-0.00539783434942365,0.003));
#561=CARTESIAN_POINT('',(-0.00183936529308558,-0.00539783434942365,0.));
#562=CARTESIAN_POINT('',(0.0433606347069144,-0.00539783434942365,0.));
#563=CARTESIAN_POINT('',(0.0433606347069144,-0.00539783434942365,0.003));
#564=CARTESIAN_POINT('',(0.0433606347069144,-0.00539783434942365,0.01));
#565=CARTESIAN_POINT('',(-0.00183936529308558,-0.00539783434942365,0.01));
#566=CARTESIAN_POINT('',(0.0433606347069144,0.0323021656505764,0.003));
#567=CARTESIAN_POINT('',(0.0433606347069144,0.0323021656505764,0.));
#568=CARTESIAN_POINT('',(0.0433606347069144,0.0700021656505764,0.));
#569=CARTESIAN_POINT('',(0.0433606347069144,0.0700021656505764,0.003));
#570=CARTESIAN_POINT('',(0.0433606347069144,0.0700021656505764,0.01));
#571=CARTESIAN_POINT('',(0.0433606347069144,0.0323021656505764,0.01));
#572=CARTESIAN_POINT('',(-0.0440248793979123,-0.00253753505217031,0.003));
#573=CARTESIAN_POINT('',(-0.0440248793979123,-0.00253753505217031,0.));
#574=CARTESIAN_POINT('',(-0.0425748793979123,-0.00253753505217031,0.));
#575=CARTESIAN_POINT('',(-0.0440248793979123,-0.00253753505217031,0.01));
#576=CARTESIAN_POINT('',(-0.0425748793979123,-0.00253753505217031,0.01));
#577=CARTESIAN_POINT('',(0.0412481181283301,0.0672211593524952,0.003));
#578=CARTESIAN_POINT('',(0.0412481181283301,0.0672211593524952,0.));
#579=CARTESIAN_POINT('',(0.0426981181283301,0.0672211593524952,0.));
#580=CARTESIAN_POINT('',(0.0412481181283301,0.0672211593524952,0.01));
#581=CARTESIAN_POINT('',(0.0426981181283301,0.0672211593524952,0.01));
#582=CARTESIAN_POINT('',(-0.0441621653735638,0.0674737095832825,0.003));
#583=CARTESIAN_POINT('',(-0.0441621653735638,0.0674737095832825,0.));
#584=CARTESIAN_POINT('',(-0.0427121653735638,0.0674737095832825,0.));
#585=CARTESIAN_POINT('',(-0.0441621653735638,0.0674737095832825,0.01));
#586=CARTESIAN_POINT('',(-0.0427121653735638,0.0674737095832825,0.01));
#587=CARTESIAN_POINT('',(0.0409222594462335,0.07000021125637,0.003));
#588=CARTESIAN_POINT('',(0.0409222594462335,0.07000021125637,0.));
#589=CARTESIAN_POINT('',(0.0384838841855526,0.0699982568621635,0.));
#590=CARTESIAN_POINT('',(0.0384838841855526,0.0699982568621635,0.003));
#591=CARTESIAN_POINT('',(0.0384838841855526,0.0699982568621635,0.01));
#592=CARTESIAN_POINT('',(0.0409222594462335,0.07000021125637,0.01));
#593=CARTESIAN_POINT('',(0.0406769325842911,-0.0025679832742264,0.003));
#594=CARTESIAN_POINT('',(0.0406769325842911,-0.0025679832742264,0.));
#595=CARTESIAN_POINT('',(0.0421269325842911,-0.0025679832742264,0.));
#596=CARTESIAN_POINT('',(0.0406769325842911,-0.0025679832742264,0.01));
#597=CARTESIAN_POINT('',(0.0421269325842911,-0.0025679832742264,0.01));
#598=CARTESIAN_POINT('',(-0.00183936529308558,0.0323021656505764,0.003));
#599=CARTESIAN_POINT('',(0.00884569063782692,0.0654,0.003));
#600=CARTESIAN_POINT('',(-0.0419161158144474,0.0323021656505764,0.003));
#601=CARTESIAN_POINT('',(-0.0419161158144474,0.,0.003));
#602=CARTESIAN_POINT('',(-0.00183936529308558,0.,0.003));
#603=CARTESIAN_POINT('',(-0.00183936529308558,0.0323021656505764,0.));
#604=CARTESIAN_POINT('',(0.00884569063782692,0.0699982568621635,0.));
#605=CARTESIAN_POINT('',(-0.0207925029098987,0.0699982568621635,0.));
#606=CARTESIAN_POINT('',(-0.0207925029098987,0.0676991284310818,0.));
#607=CARTESIAN_POINT('',(-0.00171611581444741,0.,0.01));
#608=CARTESIAN_POINT('',(-0.0419161158144474,0.,0.01));
#609=CARTESIAN_POINT('',(-0.0419161158144474,0.,0.01));
#610=CARTESIAN_POINT('',(-0.00171611581444741,0.,0.01));
#611=CARTESIAN_POINT('',(-0.0419161158144474,0.0327,0.01));
#612=CARTESIAN_POINT('',(-0.0419161158144474,0.0327,0.01));
#613=CARTESIAN_POINT('',(-0.00183936529308558,0.0323021656505764,0.01));
#614=CARTESIAN_POINT('',(0.00884569063782692,0.0699982568621635,0.01));
#615=CARTESIAN_POINT('',(-0.0207925029098987,0.0699982568621635,0.01));
#616=CARTESIAN_POINT('',(-0.0207925029098987,0.0676991284310818,0.01));
#617=CARTESIAN_POINT('',(-0.0207925029098987,0.0654,0.01));
#618=CARTESIAN_POINT('',(0.00884569063782692,0.0654,0.01));
#619=CARTESIAN_POINT('',(0.00884569063782692,0.0654,0.01));
#620=CARTESIAN_POINT('',(-0.0207925029098987,0.0654,0.01));
#621=CARTESIAN_POINT('',(0.00884569063782692,0.0699982568621635,0.01));
#622=CARTESIAN_POINT('',(-0.0207925029098987,0.0699982568621635,0.01));
#623=CARTESIAN_POINT('',(-0.0207925029098987,0.0676991284310818,0.01));
#624=MECHANICAL_DESIGN_GEOMETRIC_PRESENTATION_REPRESENTATION('',(#383),
#625);
#625=(
GEOMETRIC_REPRESENTATION_CONTEXT(3)
GLOBAL_UNCERTAINTY_ASSIGNED_CONTEXT((#626))
GLOBAL_UNIT_ASSIGNED_CONTEXT((#629,#628,#627))
REPRESENTATION_CONTEXT('Part 1','TOP_LEVEL_ASSEMBLY_PART')
);
#626=UNCERTAINTY_MEASURE_WITH_UNIT(LENGTH_MEASURE(1.E-8),#629,
'DISTANCE_ACCURACY_VALUE','Maximum Tolerance applied to model');
#627=(
NAMED_UNIT(*)
SI_UNIT($,.STERADIAN.)
SOLID_ANGLE_UNIT()
);
#628=(
NAMED_UNIT(*)
PLANE_ANGLE_UNIT()
SI_UNIT($,.RADIAN.)
);
#629=(
LENGTH_UNIT()
NAMED_UNIT(*)
SI_UNIT($,.METRE.)
);
#630=PRODUCT_DEFINITION_SHAPE('','',#631);
#631=PRODUCT_DEFINITION('','',#633,#632);
#632=PRODUCT_DEFINITION_CONTEXT('',#639,'design');
#633=PRODUCT_DEFINITION_FORMATION_WITH_SPECIFIED_SOURCE('','',#635,
 .NOT_KNOWN.);
#634=PRODUCT_RELATED_PRODUCT_CATEGORY('','',(#635));
#635=PRODUCT('Part 1','Part 1','Part 1',(#637));
#636=PRODUCT_CATEGORY('','');
#637=PRODUCT_CONTEXT('',#639,'mechanical');
#638=APPLICATION_PROTOCOL_DEFINITION('international standard',
'ap242_managed_model_based_3d_engineering',2020,#639);
#639=APPLICATION_CONTEXT('managed model based 3d engineering');
ENDSEC;
END-ISO-10303-21;
