M48
; DRILL file KiCad 10.0.5 date 2026-09-08T17:17:23
; FORMAT={-:-/ absolute / metric / decimal}
; #@! TF.CreationDate,2026-09-08T17:17:23-07:00
; #@! TF.GenerationSoftware,Kicad,Pcbnew,10.0.5
; #@! TF.FileFunction,Plated,1,2,PTH
FMAT,2
METRIC
; #@! TA.AperFunction,Plated,PTH,ComponentDrill
T1C1.000
; #@! TA.AperFunction,Plated,PTH,ComponentDrill
T2C1.500
%
G90
G05
T1
X147.26Y-59.5
X147.26Y-74.75
X149.8Y-59.5
X149.8Y-74.75
X150.69Y-82.0
X152.34Y-59.5
X152.34Y-74.75
X153.23Y-82.0
X154.88Y-59.5
X154.88Y-74.75
X155.77Y-82.0
X157.42Y-59.5
X157.42Y-74.75
X158.31Y-82.0
X159.96Y-59.5
X159.96Y-74.75
X162.5Y-59.5
X162.5Y-74.75
T2
X109.735Y-77.0
X109.735Y-98.095
X109.735Y-119.0
X116.085Y-74.46
X116.085Y-95.555
X116.085Y-116.46
X131.0Y-98.0
X137.35Y-95.46
M30
